<svg width="1087" height="735" viewBox="0 0 1087 735" fill="none" xmlns="http://www.w3.org/2000/svg">
<rect x="1076" y="524" width="210" height="47" transform="rotate(90 1076 524)" fill="black"/>
<rect x="846" y="611" width="123" height="47" transform="rotate(90 846 611)" fill="black"/>
<rect x="476" y="536" width="117" height="47" transform="rotate(90 476 536)" fill="black"/>
<rect x="251" y="663" width="72" height="47" transform="rotate(90 251 663)" fill="black"/>
<rect x="239" y="441" width="95" height="47" transform="rotate(90 239 441)" fill="black"/>
<rect x="154" y="215" width="179" height="47" transform="rotate(90 154 215)" fill="black"/>
<rect x="554" y="350" width="139" height="47" transform="rotate(90 554 350)" fill="black"/>
<rect x="799" y="658" width="152" height="47" transform="rotate(-180 799 658)" fill="black"/>
<rect x="600" y="536" width="171" height="47" transform="rotate(-180 600 536)" fill="black"/>
<rect x="239" y="441" width="175" height="47" transform="rotate(-180 239 441)" fill="black"/>
<rect x="334" y="262" width="180" height="47" transform="rotate(-180 334 262)" fill="black"/>
<rect x="239" y="582" width="175" height="47" transform="rotate(-180 239 582)" fill="black"/>
<rect x="334" y="511" width="95" height="47" transform="rotate(-180 334 511)" fill="black"/>
<rect x="204" y="710" width="60" height="47" transform="rotate(-180 204 710)" fill="black"/>
<rect x="507" y="397" width="126" height="47" transform="rotate(-180 507 397)" fill="black"/>
<rect x="647" y="489" width="245" height="47" transform="rotate(90 647 489)" fill="black"/>
<rect x="381" y="215" width="519" height="47" transform="rotate(90 381 215)" fill="black"/>
<rect x="1029" y="671" width="144" height="47" transform="rotate(-180 1029 671)" fill="black"/>
<rect x="927" y="718" width="42" height="47" transform="rotate(-180 927 718)" fill="black"/>
<rect x="64" y="136" width="598" height="47" transform="rotate(90 64 136)" fill="black"/>
<path d="M29.2886 21.2086C33.9685 11.9423 36.3085 7.30918 40 7.30918C43.6915 7.30918 46.0315 11.9423 50.7114 21.2086L77.2678 73.7902C78.6081 76.4439 79.2782 77.7708 79.2782 79.2C79.2782 80.6292 78.6081 81.9561 77.2678 84.6098L50.7114 137.191C46.0315 146.458 43.6915 151.091 40 151.091C36.3085 151.091 33.9685 146.458 29.2886 137.191L2.73222 84.6098C1.39195 81.9561 0.721811 80.6292 0.721811 79.2C0.721811 77.7708 1.39195 76.4439 2.73222 73.7902L29.2886 21.2086Z" fill="black"/>
<path d="M1041.29 434.209C1045.97 424.942 1048.31 420.309 1052 420.309C1055.69 420.309 1058.03 424.942 1062.71 434.209L1084.27 476.89C1085.61 479.544 1086.28 480.871 1086.28 482.3C1086.28 483.729 1085.61 485.056 1084.27 487.71L1062.71 530.391C1058.03 539.658 1055.69 544.291 1052 544.291C1048.31 544.291 1045.97 539.658 1041.29 530.391L1019.73 487.71C1018.39 485.056 1017.72 483.729 1017.72 482.3C1017.72 480.871 1018.39 479.544 1019.73 476.89L1041.29 434.209Z" fill="black"/>
</svg>
