<svg width="719" height="1250" viewBox="0 0 719 1250" fill="none" xmlns="http://www.w3.org/2000/svg">
<rect x="707" y="178" width="1071" height="47" transform="rotate(90 707 178)" fill="black"/>
<rect x="550" y="237" width="110" height="47" fill="black"/>
<rect x="537" y="467" width="123" height="47" fill="black"/>
<rect x="462" y="837" width="117" height="47" fill="black"/>
<rect x="589" y="1062" width="72" height="47" fill="black"/>
<rect x="367" y="1074" width="95" height="47" fill="black"/>
<rect x="141" y="1159" width="179" height="47" fill="black"/>
<rect y="1027" width="141" height="47" fill="black"/>
<rect x="276" y="759" width="139" height="47" fill="black"/>
<rect x="584" y="514" width="152" height="47" transform="rotate(90 584 514)" fill="black"/>
<rect x="462" y="713" width="171" height="47" transform="rotate(90 462 713)" fill="black"/>
<rect x="367" y="1074" width="175" height="47" transform="rotate(90 367 1074)" fill="black"/>
<rect x="188" y="979" width="180" height="47" transform="rotate(90 188 979)" fill="black"/>
<rect x="47" y="1074" width="176" height="47" transform="rotate(90 47 1074)" fill="black"/>
<rect x="508" y="1074" width="175" height="47" transform="rotate(90 508 1074)" fill="black"/>
<rect x="437" y="979" width="95" height="47" transform="rotate(90 437 979)" fill="black"/>
<rect x="636" y="1109" width="60" height="47" transform="rotate(90 636 1109)" fill="black"/>
<rect x="323" y="806" width="126" height="47" transform="rotate(90 323 806)" fill="black"/>
<rect x="415" y="666" width="245" height="47" fill="black"/>
<rect x="141" y="932" width="519" height="47" fill="black"/>
<rect x="597" y="284" width="144" height="47" transform="rotate(90 597 284)" fill="black"/>
<rect x="644" y="386" width="42" height="47" transform="rotate(90 644 386)" fill="black"/>
<path d="M673.289 91.2086C677.969 81.9423 680.308 77.3092 684 77.3092C687.692 77.3092 690.031 81.9423 694.711 91.2086L716.268 133.89C717.608 136.544 718.278 137.871 718.278 139.3C718.278 140.729 717.608 142.056 716.268 144.71L694.711 187.391C690.031 196.658 687.692 201.291 684 201.291C680.308 201.291 677.969 196.658 673.289 187.391L651.732 144.71C650.392 142.056 649.722 140.729 649.722 139.3C649.722 137.871 650.392 136.544 651.732 133.89L673.289 91.2086Z" fill="black"/>
<path d="M638.289 67.2086C642.969 57.9423 645.308 53.3092 649 53.3092C652.692 53.3092 655.031 57.9423 659.711 67.2086L666.268 80.1902C667.608 82.8439 668.278 84.1708 668.278 85.6C668.278 87.0292 667.608 88.3561 666.268 91.0098L659.711 103.991C655.031 113.258 652.692 117.891 649 117.891C645.308 117.891 642.969 113.258 638.289 103.991L631.732 91.0098C630.392 88.3561 629.722 87.0292 629.722 85.6C629.722 84.1708 630.392 82.8439 631.732 80.1902L638.289 67.2086Z" fill="black"/>
<path d="M662.289 21.2086C666.969 11.9423 669.308 7.30919 673 7.30919C676.692 7.30919 679.031 11.9423 683.711 21.2086L690.268 34.1902C691.608 36.8439 692.278 38.1708 692.278 39.6C692.278 41.0292 691.608 42.3561 690.268 45.0098L683.711 57.9914C679.031 67.2577 676.692 71.8908 673 71.8908C669.308 71.8908 666.969 67.2577 662.289 57.9914L655.732 45.0098C654.392 42.3561 653.722 41.0292 653.722 39.6C653.722 38.1708 654.392 36.8439 655.732 34.1902L662.289 21.2086Z" fill="black"/>
</svg>
